PathFileType	4	(X/Y/Z)	C:/Users/beibeiliu/ov580/test_trc/User1\sequence.6_training_dense_right.trc
DataRate	CameraRate	NumFrames	NumMarkers	Units	OrigDataRate	OrigDataStartFrame	OrigNumFrames
120	120	25	19	mm	120	1	64
Frame#	Time	ThumbCMC			ThumbMCP			ThumbIP			ThumbTip			IndexMCP			IndexPIP			IndexTip			MiddleMCP			MiddlePIP			MiddleTip			RingMCP			RingPIP			RingTip			PinkyMCP			PinkyPIP			PinkyTip			BackHand1			BackHand2			BackHand3	
		X0	Y0	Z0	X1	Y1	Z1	X2	Y2	Z2	X3	Y3	Z3	X4	Y4	Z4	X5	Y5	Z5	X6	Y6	Z6	X7	Y7	Z7	X8	Y8	Z8	X9	Y9	Z9	X10	Y10	Z10	X11	Y11	Z11	X12	Y12	Z12	X13	Y13	Z13	X14	Y14	Z14	X15	Y15	Z15	X16	Y16	Z16	X17	Y17	Z17	X18	Y18	Z18	
0	0	141.28	110.699	103.955	111.311	121.069	74.0718	100.478	109.008	46.3894	93.3845	86.9037	30.4719	163.758	99.7453	21.8652	158.157	95.7125	-7.34661	153.552	93.4635	-29.4493	137.544	74.5307	19.7234	102.923	80.097	27.9875	109.52	81.3335	68.0535	127.35	56.5286	32.013	99.4746	64.1638	50.0825	113.048	67.6886	82.1743	127.225	39.0067	44.3546	104.346	50.0701	60.4649	118.236	59.7958	87.4574	172.595	53.902	75.3476	177.179	54.7723	113.311	175.107	88.9081	95.7449	
1	0.00833333	140.299	113.575	99.5675	112.741	119.404	76.8827	101.441	109.036	46.2421	89.2603	90.8102	29.8982	162.402	101.223	22.4466	159.283	99.1451	-6.88743	151.894	90.0947	-32.0779	137.371	80.4275	20.9342	100.818	83.3949	31.9033	110.198	83.8379	69.8713	124.911	61.3645	31.3647	98.8371	60.8067	48.8723	111.886	70.1604	81.6631	127.569	41.2643	44.7578	103.691	51.7176	61.1588	122.08	62.9312	85.4301	171.246	55.7348	75.1258	175.533	55.5342	112.41	175.479	90.9967	92.7085	
2	0.0166667	139.01	114.954	105.004	112.635	118.638	74.9675	100.007	111.183	46.6216	92.1037	90.8259	30.5653	161.923	100.794	22.3179	159.166	100.138	-3.12596	152.333	89.4042	-28.606	132.023	80.7368	18.8606	100.267	83.9235	31.5411	110.942	84.3321	70.63	125.079	58.5512	32.0136	98.9407	64.9774	47.8416	110.606	69.5162	80.6366	125.965	41.9255	43.2202	103.726	50.3869	59.2	117.205	63.0446	84.2055	170.988	55.3205	74.0385	176.277	53.0364	109.566	175.395	89.3374	94.1631	
3	0.025	138.97	115.359	102.408	111.19	120.973	77.0136	100.965	110.312	45.8561	90.3245	90.4109	28.8771	162.451	102.856	24.1694	158.753	98.8187	-6.74186	152.791	87.6642	-29.5322	134.462	76.2739	19.483	100.034	79.8185	32.4547	110.008	81.4223	68.7938	124.124	59.9818	30.6767	97.0466	64.8723	51.4565	110.779	70.8808	80.6359	127.275	41.1285	43.6154	104.206	50.3399	56.8134	119.426	62.5577	86.8254	172.622	57.7542	74.3767	173.958	53.7416	112.656	174.239	92.5932	91.1985	
4	0.0333333	139.48	116.557	101.405	112.07	119.961	76.6635	100.595	111.828	47.278	91.2477	90.1299	29.3682	162.656	101.351	20.9719	159.94	100.882	-3.2738	153.208	89.426	-28.2675	138.015	81.5007	20.8445	100.797	82.5203	31.6007	107	84.3667	67.3007	128.695	60.2113	32.9419	97.7072	68.1807	51.3877	110.738	71.3441	82.6397	128.768	39.2886	44.8928	103.236	52.9742	60.3171	119.799	61.8641	86.4959	171.637	56.8951	77.487	175.784	50.864	112.545	174.321	87.0204	95.0782	
5	0.0416667	139.475	116.172	100.345	113.234	118.876	76.7342	100.899	112.495	52.1367	90.8802	94.0838	31.9914	162.241	105.871	22.1364	159.261	98.3591	-5.04393	154.383	97.6092	-32.2591	137.983	80.2937	20.52	101.742	80.9531	27.7938	105.46	85.1333	65.3406	125.415	63.0569	31.742	97.2809	65.4068	49.2506	108.585	73.139	79.0687	124.683	40.4422	43.7806	103.946	53.6166	57.0374	119.435	62.4651	89.317	170.616	53.2475	74.3754	174.307	53.849	109.436	174.495	87.8488	91.0261	
6	0.05	139.518	114.247	101.115	111.52	122.857	76.9266	98.4363	115.687	47.7804	87.0632	95.5802	29.8951	162.864	104.854	22.1946	160.054	103.727	-6.58216	152.009	92.7919	-30.9952	137.361	83.6163	19.4823	102.167	84.1065	27.2971	106.593	85.7215	66.2591	124.766	59.4854	31.2244	97.3429	65.1427	49.5962	108.351	70.5117	80.0851	128.006	42.5591	44.2125	102.411	51.8284	60.5188	120.07	62.5159	88.6961	171.874	57.1279	77.0647	173.958	56.5017	111.752	173.821	90.4805	91.744	
7	0.0583333	139.118	115.614	106.211	112.177	122.581	77.5328	99.6218	115.764	50.0189	88.8006	95.6321	29.0443	165.425	105.843	23.1614	158.999	98.4593	-7.7064	143.737	93.34	-32.6976	135.76	81.5326	19.897	102.139	84.4988	28.919	109.582	84.3039	69.7897	124.04	59.0937	32.5093	97.246	65.1037	51.1113	108.467	74.2074	79.6929	129.06	41.7449	44.7935	103.559	53.4541	56.5946	116.537	63.9163	88.6735	172.694	57.9799	73.9185	174.767	55.7226	114.504	174.715	92.648	95.7692	
8	0.0666667	140.751	113.422	102.755	112.871	123.214	79.4935	101.864	116.426	53.7799	88.9011	99.1352	32.0338	166.008	102.278	24.4919	158.094	97.2287	-5.94183	132.186	92.7011	-20.9064	137.999	81.365	20.8172	102.178	84.9958	30.8826	106.365	87.3759	64.7917	129.216	62.1029	32.7777	98.927	68.2987	47.455	110.856	73.6745	81.7576	127.037	41.773	44.8958	104.338	56.1262	58.5388	114.465	62.3532	87.339	172.459	53.7733	76.5225	174.324	52.6405	112.368	174.088	89.0621	97.5939	
9	0.075	141.414	115.944	108.51	113.437	123.018	79.7073	102.456	118.171	53.9398	91.0537	99.2126	30.7956	166.721	98.7064	26.2214	156.515	96.9367	-2.21633	120.343	97.0251	-9.48381	137.968	85.1282	19.3326	103.683	86.433	29.761	107.292	89.5472	65.1554	129.589	61.425	33.1436	99.7699	69.9554	46.9067	110.475	75.3845	79.7871	126.404	40.0983	45.4342	103.526	55.6591	58.1668	116.841	67.1702	85.7663	170.253	58.2904	80.1482	173.47	52.429	112.123	176.401	86.8018	99.2159	
10	0.0833333	142.802	113.329	104.988	113.746	124.283	76.984	100.126	118.369	51.3683	91.193	96.5013	31.4506	166.893	100.563	29.0268	152.638	95.1297	-4.55605	120.675	92.6942	-7.61077	138.214	81.9855	20.2253	104.804	83.0742	26.0613	108.579	86.9822	64.8034	125.556	60.3231	32.2011	98.641	68.6397	47.7688	110.095	74.3827	79.6869	125.448	39.5653	46.3302	103.576	55.6116	58.1312	119.074	66.2114	88.0597	170.519	57.3147	81.6164	174.858	53.1993	116.125	174.029	87.354	99.2052	
11	0.0916667	139.953	114.394	108.045	114.178	119.427	79.3503	99.3663	114.297	48.4966	88.3699	93.2212	29.7879	165.635	101.297	25.3858	155.583	92.0661	-5.07454	125.17	90.4882	-18.4105	138.574	83.3854	21.9125	101.789	83.6498	28.3433	106.571	89.1813	66.4072	124.661	59.9738	32.3405	97.3533	66.4438	49.2378	111.283	74.5185	81.0638	122.977	44.5742	45.0607	101.313	55.3963	61.9776	116.855	63.357	88.9539	169.727	55.2296	75.8808	173.373	54.118	113.764	173.256	91.5957	94.1666	
12	0.1	137.17	116.58	105.932	110.045	119.214	78.2489	95.9147	112.895	53.6539	85.1319	93.7829	33.2421	162.988	103.014	21.5374	156.59	94.1825	-5.30658	141.803	90.4234	-26.5602	130.372	83.2699	19.2577	97.8622	80.4977	33.4797	105.458	84.6373	68.446	120.885	60.688	33.031	94.4161	64.8377	54.4385	108.775	75.1451	82.6068	120.788	40.9254	45.1719	100.898	54.7154	61.3778	116.831	64.8543	87.5741	170.452	57.539	75.9802	171.847	55.1366	111.844	173.328	91.7895	96.5911	
13	0.108333	137.411	113.127	102.904	107.669	120.17	77.8716	95.986	112.425	52.6937	82.6722	95.2852	34.9384	159.049	101.546	24.2647	156.05	95.8021	-4.09784	146.718	90.0517	-32.2022	132.148	78.7601	21.4745	97.1022	80.6985	30.5389	105.036	84.4118	71.3903	117.852	58.7151	33.7215	94.6598	69.7878	51.5953	104.697	72.5349	81.8422	122.33	39.0002	46.1807	99.1834	53.514	63.7368	113.355	65.6995	85.9609	168.511	58.2338	78.2711	171.812	55.4115	110.055	172.37	92.9683	96.1671	
14	0.116667	137.144	115.636	103.787	106.286	124.342	80.5145	95.0584	115.169	53.8526	83.3942	94.3581	31.7185	160.239	104.789	21.0051	153.815	97.1668	-6.28921	142.909	93.9256	-29.3814	129.966	84.9765	21.809	97.1355	82.1058	30.2343	103.169	86.8628	70.6142	118.9	59.3133	34.3713	92.4684	69.173	55.6356	108.196	75.3164	84.7108	122.083	42.0773	46.7628	96.5057	51.7177	61.5104	114.729	65.5434	89.9711	167.597	55.5808	76.7406	172.434	57.5172	112.089	170.605	92.4308	92.636	
15	0.125	135.118	118.518	106.094	105.391	122.514	82.5619	92.1757	117.197	56.5328	81.941	98.075	36.644	158.166	108.078	24.484	148.224	102.048	-5.26817	128.327	97.8231	-24.7811	127.45	86.0931	21.9971	94.9187	88.2228	33.6222	100.091	89.7869	69.9822	118.915	65.8673	34.1188	91.9538	65.3092	52.3978	106.108	72.8537	85.0192	121.725	43.3608	46.9599	97.5619	52.8528	62.4871	113.346	65.6638	90.0987	168.768	57.1247	78.9584	173.311	55.9963	111.044	169.208	94.188	98.1797	
16	0.133333	126.369	115.1	111.753	95.4926	119.207	85.3211	87.6719	109.577	56.661	79.6864	90.7078	36.8763	150.947	115.253	28.5717	140.802	109.699	0.188926	113.727	97.5004	-15.889	129.767	91.6204	25.5007	95.2609	85.3781	31.8214	99.4933	81.5038	70.0401	125.619	67.3411	36.6591	94.1036	65.0412	54.5273	106.904	72.047	85.732	129.611	44.7946	48.2952	102.593	52.6038	64.9273	116.856	64.324	91.4572	169.994	68.0479	83.0106	174.296	64.1456	117.956	163.553	100.35	103.81	
17	0.141667	109.933	110.694	115.026	85.8734	100.952	85.3895	76.0861	94.2945	60.5015	77.6927	76.6831	37.8322	139.708	121.916	35.2914	133.969	115.319	5.83769	114.607	100.604	-11.9703	126.301	90.8039	27.4285	96.6182	73.6992	34.8633	98.3314	75.6831	72.2812	127.967	69.3252	36.7683	101.93	53.5773	55.4034	108.07	64.2268	83.6832	137.653	50.1321	47.7902	112.95	45.2335	64.2268	119.037	55.5637	93.52	170.966	80.6803	87.2	173.658	76.5673	124.434	150.468	110.559	110.237	
18	0.15	94.647	95.6396	121.383	77.7552	80.6769	86.1803	72.8552	71.2657	60.5344	82.9693	55.9822	34.5523	120.91	123.535	42.5303	124.421	119.429	13.6384	119.589	101.836	-15.1714	121.553	89.4345	29.559	104.667	61.8335	32.0105	105.608	60.1486	73.4752	138.771	66.2092	40.2753	113.472	44.0581	50.0286	114.224	53.1117	84.7376	151.935	54.3219	51.5058	125.626	39.656	63.907	126.107	49.1055	91.1966	162.183	93.9613	91.5091	163.853	87.1463	127.461	137.573	110.212	113.954	
19	0.158333	87.8286	80.7531	118.938	79.9091	62.3361	85.8727	80.5484	53.0297	61.445	94.1387	41.25	35.6835	106.923	114.668	46.6396	111.728	116.558	17.0108	114.72	110.373	-9.44471	124.548	82.8008	32.381	111.754	51.4032	35.62	109.269	51.3398	75.6367	139.819	65.0813	41.4671	122.719	38.9635	52.7461	121.453	46.9074	87.717	157.602	62.0765	56.1493	139.764	37.6471	62.8999	130.162	50.9293	94.0406	152.95	101.228	94.2135	157.444	95.7129	129.464	124.256	106.886	118.785	
20	0.166667	88.2822	70.6131	118.266	80.9046	49.1757	90.122	82.5961	39.4887	59.5233	103.878	36.1821	39.5997	103.682	107.443	46.3515	103.724	109.768	18.1301	110.716	102.982	-8.4862	120.619	84.0026	37.262	118.478	47.9892	34.6742	110.334	46.1448	77.5141	141.246	67.8702	44.4319	131.026	36.7859	55.6442	129.962	39.8271	87.1279	163.453	64.308	58.3846	150.149	38.6138	65.0498	137.843	45.6342	97.0814	150.869	103.497	102.264	151.261	99.9409	136.361	110.198	104.013	115.946	
21	0.175	85.5064	68.5357	119.529	84.0692	47.3552	88.0152	84.4949	37.3412	59.7675	103.297	30.8564	40.5802	101.299	106.781	44.6786	104.157	106.615	19.2179	110.633	86.7387	-10.3118	121.829	81.1565	36.6917	115.406	45.6372	37.9104	112.515	43.9425	77.254	144.222	66.6735	45.568	136.303	37.9031	54.4024	130.799	38.5225	88.3719	162.148	63.6288	59.0038	148.336	40.5083	68.135	136.279	47.6935	97.4945	143.231	104.372	104.301	147.121	99.6179	137.688	112.488	103.283	120.704	
22	0.183333	86.4126	70.618	121.273	81.9262	48.0575	93.1513	84.0051	40.7367	60.56	102.165	31.9633	40.5958	101.073	106.621	45.1067	106.144	99.6294	15.7739	109.878	76.6983	-4.72532	123.786	81.4027	40.0005	117.522	45.8681	38.2028	110.527	45.4629	79.1604	144.173	67.5651	48.2869	132.177	35.281	55.563	128.791	38.4098	90.4564	157.348	61.4921	59.3179	147.49	36.6682	69.2226	131.769	48.9914	98.144	145.001	103.875	99.2816	146.946	97.6967	139.09	113.07	103.481	117.489	
23	0.191667	84.1324	75.8204	123.956	75.8951	53.6835	93.4519	77.6789	44.6233	67.3229	89.9762	30.1675	41.5932	104.703	104.924	47.3702	104.615	100.025	13.8804	107.947	76.9303	-5.65619	116.985	79.1575	38.5112	108.287	43.5369	39.4374	104.365	43.6437	77.9342	136.602	59.8996	47.0133	123.875	29.6782	60.8581	118.218	42.0683	93.5159	153.373	52.9499	57.8531	136.808	33.5077	66.8036	130.487	46.1356	99.3206	149.679	96.8909	94.9736	152.795	96.3189	135.004	117.376	104.872	119.235	
24	0.2	91.2111	91.0481	119.083	72.9949	70.147	93.6093	64.9919	56.7328	68.6674	77.7575	37.585	43.94	110.037	105.893	37.9304	110.779	99.5745	11.103	107.519	82.0246	-13.0679	116.855	73.345	36.3355	94.2671	45.4748	41.5014	96.5736	50.979	82.8211	124.041	52.7533	44.0004	107.843	30.9589	62.6906	110.343	42.2165	92.2957	143.647	43.505	57.1589	120.835	29.5195	73.7047	122.944	42.2076	99.5537	154.905	90.5833	88.6468	160.816	89.5346	128.844	125.962	107.886	113.072	
